<svg width="22" height="19" viewBox="0 0 22 19" class="icon" fill="none" xmlns="http://www.w3.org/2000/svg">
<path d="M11 17.5H4.2C3.07989 17.5 2.51984 17.5 2.09202 17.282C1.71569 17.0903 1.40973 16.7843 1.21799 16.408C1 15.9802 1 15.4201 1 14.3V4.7C1 3.57989 1 3.01984 1.21799 2.59202C1.40973 2.21569 1.71569 1.90973 2.09202 1.71799C2.51984 1.5 3.07989 1.5 4.2 1.5H4.6C6.84021 1.5 7.96031 1.5 8.81596 1.93597C9.5686 2.31947 10.1805 2.93139 10.564 3.68404C11 4.53968 11 5.65979 11 7.9M11 17.5V7.9V17.5ZM11 17.5H17.8C18.9201 17.5 19.4802 17.5 19.908 17.282C20.2843 17.0903 20.5903 16.7843 20.782 16.408C21 15.9802 21 15.4201 21 14.3V4.7C21 3.57989 21 3.01984 20.782 2.59202C20.5903 2.21569 20.2843 1.90973 19.908 1.71799C19.4802 1.5 18.9201 1.5 17.8 1.5H17.4C15.1598 1.5 14.0397 1.5 13.184 1.93597C12.4314 2.31947 11.8195 2.93139 11.436 3.68404C11 4.53968 11 5.65979 11 7.9" fill="#518310"/>
<path d="M11 17.5H4.2C3.07989 17.5 2.51984 17.5 2.09202 17.282C1.71569 17.0903 1.40973 16.7843 1.21799 16.408C1 15.9802 1 15.4201 1 14.3V4.7C1 3.57989 1 3.01984 1.21799 2.59202C1.40973 2.21569 1.71569 1.90973 2.09202 1.71799C2.51984 1.5 3.07989 1.5 4.2 1.5H4.6C6.84021 1.5 7.96031 1.5 8.81596 1.93597C9.5686 2.31947 10.1805 2.93139 10.564 3.68404C11 4.53968 11 5.65979 11 7.9M11 17.5V7.9M11 17.5H17.8C18.9201 17.5 19.4802 17.5 19.908 17.282C20.2843 17.0903 20.5903 16.7843 20.782 16.408C21 15.9802 21 15.4201 21 14.3V4.7C21 3.57989 21 3.01984 20.782 2.59202C20.5903 2.21569 20.2843 1.90973 19.908 1.71799C19.4802 1.5 18.9201 1.5 17.8 1.5H17.4C15.1598 1.5 14.0397 1.5 13.184 1.93597C12.4314 2.31947 11.8195 2.93139 11.436 3.68404C11 4.53968 11 5.65979 11 7.9" stroke="white" stroke-width="2" stroke-linecap="round" stroke-linejoin="round"/>
</svg>
